<?xml version="1.0" encoding="UTF-8"?>
<svg width="18px" height="19px" viewBox="0 0 18 19" version="1.1" xmlns="http://www.w3.org/2000/svg" xmlns:xlink="http://www.w3.org/1999/xlink">
    <!-- Generator: Sketch 44.1 (41455) - http://www.bohemiancoding.com/sketch -->
    <title>bell</title>
    <desc>Created with Sketch.</desc>
    <defs></defs>
    <g id="Welcome" stroke="none" stroke-width="1" fill="none" fill-rule="evenodd">
        <g id="first-visit" transform="translate(-1186.000000, -26.000000)" fill="#0D2C54">
            <g id="nav-copy" transform="translate(0.000000, -1.000000)">
                <g id="bell" transform="translate(1186.941240, 25.000000)">
                    <g transform="translate(0.000000, 2.000000)">
                        <g id="Group-3" transform="translate(0.000000, 0.061192)">
                            <path d="M10.0492953,1.66350071 C10.3623732,1.73192776 10.6665872,1.78331566 10.9622681,1.86655053 C11.4375405,2.00029431 11.8877428,2.1941484 12.2646533,2.53337616 C12.8794315,3.08681032 13.1116105,3.81239395 13.1189529,4.61749359 C13.1277506,5.58236904 13.1749802,6.54197046 13.3195794,7.49623025 C13.5546689,9.04692776 14.1438479,10.4283157 15.1692058,11.6092231 C15.5017311,11.9921306 15.8234743,12.3868032 16.1249763,12.7954722 C16.7541086,13.6483762 16.9712058,14.6366466 16.9847,15.6846893 C16.9850969,15.7120737 16.9796066,15.7396609 16.9743809,15.7922658 C16.5598984,15.8704295 16.1459451,15.95691 15.7291475,16.0258779 C12.6541981,16.5354295 9.55642763,16.631579 6.45065331,16.5268423 C4.40073113,16.4577391 2.36020195,16.2701733 0.345999611,15.8541342 C-0.0608097276,15.7700879 -0.00332723735,15.873337 0.011159144,15.4117925 C0.0499217899,14.1716537 0.500917899,13.1087356 1.30573891,12.1861875 C1.82625642,11.5896146 2.33665331,10.9826964 2.73327588,10.2867285 C3.25994514,9.36262527 3.56071946,8.35785658 3.68659883,7.30710925 C3.78674669,6.47056833 3.84178171,5.62462883 3.85554047,4.78179964 C3.8807428,3.23610569 4.57813969,2.27204164 6.03868444,1.86661815 C6.29302296,1.7960274 6.55344708,1.74470712 6.81367276,1.70129786 C6.91831868,1.68385302 6.94510856,1.64909858 6.95059883,1.54388861 C6.9903537,0.78875694 7.48606576,0.174739146 8.15534981,0.0402516014 C9.12640039,-0.154887189 9.97507743,0.51403452 10.0383809,1.52421246 C10.0414899,1.57336904 10.0460541,1.62239039 10.0492953,1.66350071" id="Fill-1"></path>
                        </g>
                        <path d="M6.32137393,17.3942904 L10.6639148,17.3942904 C10.468977,18.1306249 9.67288755,18.9835964 8.51106654,18.9934683 C7.37940895,19.0031374 6.54594591,18.1961445 6.32137393,17.3942904" id="Fill-4"></path>
                    </g>
                </g>
            </g>
        </g>
    </g>
</svg>