<?xml version="1.0" encoding="UTF-8"?>
<svg width="15px" height="16px" viewBox="0 0 15 16" version="1.1" xmlns="http://www.w3.org/2000/svg" xmlns:xlink="http://www.w3.org/1999/xlink">
    <!-- Generator: Sketch 44.1 (41455) - http://www.bohemiancoding.com/sketch -->
    <title>icon</title>
    <desc>Created with Sketch.</desc>
    <defs></defs>
    <g id="Welcome" stroke="none" stroke-width="1" fill="none" fill-rule="evenodd">
        <g id="navigation-states" transform="translate(-1150.000000, -784.000000)" fill="#0D2C54">
            <g id="nav-copy" transform="translate(0.000000, 507.000000)">
                <g id="user-dropdown" transform="translate(1120.000000, 23.000000)">
                    <g id="dropdown" transform="translate(0.000000, 48.000000)">
                        <path d="M39.316497,207.898857 L32.5873043,207.898857 C32.6789331,207.954438 32.7365368,207.991348 32.7959314,208.025108 C33.5928662,208.477349 34.3877117,208.933403 35.1885597,209.378647 C35.4384413,209.517599 35.5473478,209.706825 35.5467509,209.994115 C35.5413785,212.607972 35.5435341,215.221862 35.5435341,217.835753 L35.5435341,218.026306 L39.3100302,218.026306 L39.3100302,215.147014 L40.3610582,215.147014 L40.3610582,215.335976 C40.3610582,216.374899 40.3612572,217.41379 40.3609588,218.452713 C40.3607929,218.899946 40.1724615,219.090334 39.7282792,219.090533 C38.4130765,219.090997 37.0978405,219.090666 35.7826046,219.090699 L35.5432025,219.090699 C35.5432025,219.157986 35.5431693,219.216319 35.5432025,219.27462 C35.5433683,219.854869 35.5444959,220.435118 35.5434678,221.0154 C35.5425724,221.521166 35.1353003,221.758976 34.6945338,221.509526 C33.3302169,220.737264 31.9668287,219.963411 30.6031087,219.190088 C30.5598976,219.16558 30.519638,219.132849 30.4735418,219.116964 C30.0837133,218.982853 29.998916,218.697289 30.0000104,218.310743 C30.0104235,214.685587 30.006046,211.060431 30.0060792,207.435274 C30.0060792,207.052609 30.2188184,206.835957 30.5980348,206.83589 C33.6539852,206.835393 36.7099686,206.83536 39.7659521,206.835559 C40.1394314,206.835559 40.3590353,207.037653 40.3597981,207.395711 C40.3627164,208.771701 40.3613567,210.147725 40.3611909,211.523748 C40.3611909,211.550941 40.3564155,211.578168 40.3525022,211.619655 L39.316497,211.619655 L39.316497,207.898857 Z M41.4559971,214.124164 C40.9122602,214.124164 40.3936274,214.124198 39.8749615,214.124164 C39.4825795,214.124164 39.0901643,214.125524 38.6977823,214.123733 C38.2413297,214.121677 37.9063525,213.809848 37.9036,213.387818 C37.9008806,212.967049 38.2372175,212.648553 38.6929073,212.647393 C39.5495351,212.645171 40.4061961,212.64653 41.2628571,212.646398 L41.4476069,212.646398 C41.4503926,212.585179 41.4547369,212.53245 41.4548696,212.479722 C41.4556987,212.098383 41.4566272,211.717044 41.4554997,211.335672 C41.4551017,211.194233 41.4889941,211.070237 41.6233697,211.000098 C41.7623881,210.927471 41.8872459,210.965841 42.0085885,211.054186 C42.9463988,211.737074 43.8861658,212.41721 44.8238766,213.100197 C45.0585364,213.271085 45.0588017,213.49951 44.8241087,213.670531 C43.8865637,214.35375 42.9468631,215.034052 42.0091523,215.717105 C41.888473,215.80502 41.7654722,215.849259 41.6251936,215.772952 C41.4930731,215.701088 41.4550354,215.579679 41.4554997,215.437543 C41.4568925,215.007223 41.4559971,214.576936 41.4559971,214.124164 Z" id="icon"></path>
                    </g>
                </g>
            </g>
        </g>
    </g>
</svg>