<svg xmlns="http://www.w3.org/2000/svg" viewBox="0 0 14 15.8"><style>.st0{fill:#B6CCCC;}</style><title>no-user</title><path class="st0" d="M3.5 13.6c-.8 0-1.3-.2-1.8-.4-.3 0-.5-.2-.6-.3v-.5-.3-.2l1.2-1 2-1c.3 0 .6-.2.8-.4.5-.7.6-1.5.4-2.3 0-.2-.2-.4-.3-.5C4.5 6 4 5 4 4c0-.6 0-1.2.2-1.8.3-.7.8-1 1.5-1.2.8-.2 1.5 0 2 .5.5.3.7.7.8 1.3.2.7 0 1.4-.2 2.2 0 .6-.5 1.2-1 1.7l-.2.6-.2.8L8 7.3c.4-.5.8-1.2 1-2 .5-1 .5-1.8.3-2.7-.2-.7-.5-1.3-1-1.7-1-.7-1.8-1-3-.7C4.3.4 3.5 1 3 2c-.2.7-.3 1.5-.2 2.4.2 1.2.7 2.3 1.6 3.3.3.6.2 1 0 1.5-.3 0-.4.2-.5.2-1 .3-1.7.7-2.3 1L.4 11.5 0 12v.7c0 .4 0 .7.4 1 .2.2.5.4 1 .5l2 .4H6c-.2-.2-.5-.6-.6-1h-2z"/><path class="st0" d="M10 7.8c-1 0-1.7.2-2.3.7l-.8.8c-.7.7-1 1.5-1 2.5 0 .7.2 1.4.5 2l.8 1c.7.6 1.7 1 2.7 1 2.2 0 4-1.8 4-4s-1.8-4-4-4zm0 7c-.4 0-.7 0-1-.2-.5-.2-1-.5-1.3-1-.4-.4-.7-1-.7-1.8 0-.6.2-1.2.6-1.7l3 3.2.8.7.3.2c-.5.4-1 .6-1.7.6zm2.4-1.3L12 13l-1-1-.8-.7-2-2C9 9 9.5 8.7 10 8.7c1.7 0 3 1.3 3 3 0 .6-.2 1.2-.6 1.7z"/></svg>