<?xml version="1.0" encoding="UTF-8"?>
<svg width="16px" height="16px" viewBox="0 0 16 16" version="1.1" xmlns="http://www.w3.org/2000/svg" xmlns:xlink="http://www.w3.org/1999/xlink">
    <!-- Generator: Sketch 44.1 (41455) - http://www.bohemiancoding.com/sketch -->
    <title>wheel</title>
    <desc>Created with Sketch.</desc>
    <defs></defs>
    <g id="Welcome" stroke="none" stroke-width="1" fill="none" fill-rule="evenodd">
        <g id="projects-final" transform="translate(-424.000000, -431.000000)" fill="#FFFFFF">
            <g id="project" transform="translate(50.000000, 401.000000)">
                <path d="M382.010932,41.1968484 C383.823278,41.1970542 385.294646,39.7699639 385.2981,38.0084958 C385.301555,36.2372879 383.832021,34.8045046 382.01065,34.8034072 C380.199714,34.8021725 378.727571,36.2299487 378.723199,37.9916226 C378.718828,39.7609786 380.191465,41.1967112 382.010932,41.1968484 Z M380.435212,45.9988569 C380.103823,45.9974166 379.991433,45.8989894 379.953358,45.5840913 C379.875235,44.9376961 379.795631,44.2913008 379.723854,43.6440826 C379.713277,43.5483305 379.668293,43.5165731 379.587913,43.4748702 C379.164723,43.2554498 378.74407,43.0307479 378.330962,42.7940427 C378.240922,42.7424627 378.180708,42.7386903 378.093278,42.7781297 C377.508059,43.0422025 376.921359,43.3031201 376.334518,43.5636261 C376.056645,43.6870201 375.90752,43.6259747 375.75903,43.3695841 C375.234589,42.4645348 374.702603,41.5636694 374.173297,40.6612951 C374.144248,40.6116358 374.111885,40.5637597 374.085303,40.5130029 C373.974252,40.3009902 374.012961,40.1297887 374.210808,39.9913049 C374.735037,39.6244152 375.259549,39.2577314 375.788643,38.897495 C375.88954,38.8287675 375.900258,38.7651157 375.894053,38.6465916 C375.874734,38.2783301 375.865638,37.906159 375.899764,37.5396809 C375.92134,37.3072283 375.892572,37.1553008 375.680413,37.0109867 C375.146735,36.6480753 374.634563,36.2554643 374.111814,35.8772573 C373.984265,35.7850033 373.982149,35.662501 374.025159,35.5396557 C374.060555,35.438485 374.123307,35.345888 374.178374,35.2519193 C374.692944,34.3742375 375.208289,33.4970359 375.723846,32.6199028 C375.868035,32.3746238 376.043954,32.3143329 376.313436,32.4229114 C376.909373,32.6629089 377.503335,32.9074334 378.100963,33.1433841 C378.15878,33.1662247 378.248537,33.1643042 378.302688,33.136045 C378.720591,32.9182021 379.130385,32.6855437 379.549698,32.4703759 C379.658704,32.4144062 379.715181,32.3641295 379.729212,32.235797 C379.796266,31.6226681 379.87869,31.0110482 379.95498,30.3988109 C379.990445,30.1146412 380.107207,30.0039364 380.400099,30.0021531 C381.02861,29.998312 381.657192,30.0007813 382.285773,30.0007813 C382.72638,30.0007127 383.166986,29.9985864 383.607522,30.0017416 C383.913952,30.0039364 384.032335,30.111829 384.066743,30.4021719 C384.144161,31.0544658 384.22031,31.7070342 384.305343,32.3584365 C384.312817,32.4152293 384.371057,32.4920504 384.424643,32.5126275 C384.886755,32.6899335 385.310369,32.9300682 385.713606,33.2101911 C385.762962,33.2444863 385.868372,33.2413311 385.929361,33.2149924 C386.492018,32.9717712 387.050655,32.7198389 387.61028,32.4700329 C387.987217,32.3017809 388.090301,32.3409459 388.296255,32.6947348 C388.822529,33.5988239 389.355008,34.4994834 389.884667,35.4017205 C390.070174,35.7177848 390.039644,35.8507128 389.736529,36.0612165 C389.230068,36.4130849 388.724452,36.7661879 388.216792,37.1163415 C388.145438,37.1655207 388.094108,37.2055089 388.119632,37.3077085 C388.215312,37.6916085 388.201774,38.0796925 388.127035,38.4642785 C388.084166,38.6846592 388.114767,38.8379586 388.329394,38.9819297 C388.807441,39.302658 389.259752,39.6597392 389.721652,40.0030338 C389.987256,40.2004368 390.035132,40.422738 389.868732,40.7068391 C389.342951,41.6045493 388.81562,42.5013678 388.287583,43.3977061 C388.151008,43.6295414 387.963597,43.6866086 387.706665,43.5729544 C387.114183,43.3108022 386.522054,43.0476211 385.932393,42.7795015 C385.835515,42.7354665 385.772762,42.7485673 385.680115,42.8016562 C385.291896,43.0244376 384.89853,43.240017 384.496985,43.4390661 C384.368025,43.5029923 384.304568,43.561637 384.289408,43.7090376 C384.224118,44.34535 384.141129,44.9798791 384.065968,45.6152313 C384.035367,45.8740912 383.911272,45.9949473 383.642636,45.9972108 C383.096337,46.0018749 382.549968,45.9985826 382.00367,45.9985826 C381.48085,45.9994743 380.957961,46.0011204 380.435212,45.9988569 Z" id="wheel"></path>
            </g>
        </g>
    </g>
</svg>